<svg width="500" height="173" viewBox="0 0 538 173" fill="none" xmlns="http://www.w3.org/2000/svg">
<path d="M211.475 108.324H206.904V121H205.039V108.324H200.479V106.781H211.475V108.324ZM229.082 121H227.197V114.428H220.029V121H218.154V106.781H220.029V112.895H227.197V106.781H229.082V121ZM245.225 117.289H239.268L237.93 121H235.996L241.426 106.781H243.066L248.506 121H246.582L245.225 117.289ZM239.834 115.746H244.668L242.246 109.096L239.834 115.746ZM257.393 121H255.518V106.781H257.393V121ZM267.676 119.467H274.414V121H265.791V106.781H267.676V119.467ZM289.365 117.289H283.408L282.07 121H280.137L285.566 106.781H287.207L292.646 121H290.723L289.365 117.289ZM283.975 115.746H288.809L286.387 109.096L283.975 115.746ZM310.449 121H308.564L301.406 110.043V121H299.521V106.781H301.406L308.584 117.787V106.781H310.449V121ZM318.74 121V106.781H322.754C323.991 106.781 325.085 107.055 326.035 107.602C326.986 108.148 327.718 108.926 328.232 109.936C328.753 110.945 329.017 112.104 329.023 113.412V114.32C329.023 115.661 328.763 116.837 328.242 117.846C327.728 118.855 326.989 119.63 326.025 120.17C325.068 120.71 323.952 120.987 322.676 121H318.74ZM320.615 108.324V119.467H322.588C324.033 119.467 325.156 119.018 325.957 118.119C326.764 117.221 327.168 115.941 327.168 114.281V113.451C327.168 111.837 326.787 110.583 326.025 109.691C325.27 108.793 324.196 108.337 322.803 108.324H320.615Z" fill="black"/>
<path d="M190 113H131" stroke="black"/>
<path d="M406 113H347" stroke="black"/>
<path d="M88.81 60.772V67.828C88.81 70.096 89.846 71.23 91.918 71.23C93.514 71.23 94.564 70.474 95.068 68.962C95.208 68.486 95.376 68.164 95.572 67.996C95.796 67.828 96.146 67.744 96.622 67.744H105.19C105.442 67.744 105.652 67.842 105.82 68.038C106.016 68.206 106.114 68.416 106.114 68.668C106.114 71.104 105.414 73.148 104.014 74.8C101.438 77.88 97.42 79.42 91.96 79.42C87.676 79.42 84.26 78.482 81.712 76.606C79.164 74.702 77.89 71.79 77.89 67.87V60.73C77.89 56.894 79.192 54.01 81.796 52.078C84.4 50.146 87.788 49.18 91.96 49.18C97.42 49.18 101.438 50.72 104.014 53.8C105.414 55.452 106.114 57.496 106.114 59.932C106.114 60.184 106.016 60.408 105.82 60.604C105.652 60.772 105.442 60.856 105.19 60.856H96.622C96.174 60.856 95.838 60.772 95.614 60.604C95.418 60.436 95.236 60.114 95.068 59.638C94.536 58.126 93.486 57.37 91.918 57.37C89.846 57.37 88.81 58.504 88.81 60.772ZM128.545 49.6H136.777C137.085 49.6 137.351 49.712 137.575 49.936C137.799 50.16 137.911 50.426 137.911 50.734V77.866C137.911 78.174 137.799 78.44 137.575 78.664C137.351 78.888 137.085 79 136.777 79H128.545C128.237 79 127.971 78.888 127.747 78.664C127.523 78.44 127.411 78.174 127.411 77.866V68.794H120.607V77.866C120.607 78.174 120.495 78.44 120.271 78.664C120.047 78.888 119.781 79 119.473 79H111.241C110.933 79 110.667 78.902 110.443 78.706C110.219 78.482 110.107 78.202 110.107 77.866V50.734C110.107 50.426 110.219 50.16 110.443 49.936C110.667 49.712 110.933 49.6 111.241 49.6H119.473C119.781 49.6 120.047 49.712 120.271 49.936C120.495 50.16 120.607 50.426 120.607 50.734V59.554H127.411V50.734C127.411 50.426 127.523 50.16 127.747 49.936C127.971 49.712 128.237 49.6 128.545 49.6ZM153.073 79H144.505C144.197 79 143.931 78.888 143.707 78.664C143.483 78.44 143.371 78.174 143.371 77.866V50.734C143.371 50.426 143.483 50.16 143.707 49.936C143.931 49.712 144.197 49.6 144.505 49.6H153.073C153.381 49.6 153.647 49.712 153.871 49.936C154.095 50.16 154.207 50.426 154.207 50.734V77.866C154.207 78.174 154.095 78.44 153.871 78.664C153.647 78.888 153.381 79 153.073 79ZM170.322 70.39H181.956C182.264 70.39 182.53 70.502 182.754 70.726C182.978 70.95 183.09 71.216 183.09 71.524V77.866C183.09 78.174 182.978 78.44 182.754 78.664C182.53 78.888 182.264 79 181.956 79H160.788C160.48 79 160.214 78.888 159.99 78.664C159.766 78.44 159.654 78.174 159.654 77.866V50.734C159.654 50.426 159.766 50.16 159.99 49.936C160.214 49.712 160.48 49.6 160.788 49.6H169.188C169.496 49.6 169.762 49.712 169.986 49.936C170.21 50.16 170.322 50.426 170.322 50.734V70.39ZM197.556 70.39H209.19C209.498 70.39 209.764 70.502 209.988 70.726C210.212 70.95 210.324 71.216 210.324 71.524V77.866C210.324 78.174 210.212 78.44 209.988 78.664C209.764 78.888 209.498 79 209.19 79H188.022C187.714 79 187.448 78.888 187.224 78.664C187 78.44 186.888 78.174 186.888 77.866V50.734C186.888 50.426 187 50.16 187.224 49.936C187.448 49.712 187.714 49.6 188.022 49.6H196.422C196.73 49.6 196.996 49.712 197.22 49.936C197.444 50.16 197.556 50.426 197.556 50.734V70.39ZM223.825 79H215.257C214.949 79 214.683 78.888 214.459 78.664C214.235 78.44 214.123 78.174 214.123 77.866V50.734C214.123 50.426 214.235 50.16 214.459 49.936C214.683 49.712 214.949 49.6 215.257 49.6H223.825C224.133 49.6 224.399 49.712 224.623 49.936C224.847 50.16 224.959 50.426 224.959 50.734V77.866C224.959 78.174 224.847 78.44 224.623 78.664C224.399 78.888 224.133 79 223.825 79ZM252.667 60.772V67.828C252.667 70.096 253.703 71.23 255.775 71.23C257.371 71.23 258.421 70.474 258.925 68.962C259.065 68.486 259.233 68.164 259.429 67.996C259.653 67.828 260.003 67.744 260.479 67.744H269.047C269.299 67.744 269.509 67.842 269.677 68.038C269.873 68.206 269.971 68.416 269.971 68.668C269.971 71.104 269.271 73.148 267.871 74.8C265.295 77.88 261.277 79.42 255.817 79.42C251.533 79.42 248.117 78.482 245.569 76.606C243.021 74.702 241.747 71.79 241.747 67.87V60.73C241.747 56.894 243.049 54.01 245.653 52.078C248.257 50.146 251.645 49.18 255.817 49.18C261.277 49.18 265.295 50.72 267.871 53.8C269.271 55.452 269.971 57.496 269.971 59.932C269.971 60.184 269.873 60.408 269.677 60.604C269.509 60.772 269.299 60.856 269.047 60.856H260.479C260.031 60.856 259.695 60.772 259.471 60.604C259.275 60.436 259.093 60.114 258.925 59.638C258.393 58.126 257.343 57.37 255.775 57.37C253.703 57.37 252.667 58.504 252.667 60.772ZM292.402 49.6H300.634C300.942 49.6 301.208 49.712 301.432 49.936C301.656 50.16 301.768 50.426 301.768 50.734V77.866C301.768 78.174 301.656 78.44 301.432 78.664C301.208 78.888 300.942 79 300.634 79H292.402C292.094 79 291.828 78.888 291.604 78.664C291.38 78.44 291.268 78.174 291.268 77.866V68.794H284.464V77.866C284.464 78.174 284.352 78.44 284.128 78.664C283.904 78.888 283.638 79 283.33 79H275.098C274.79 79 274.524 78.902 274.3 78.706C274.076 78.482 273.964 78.202 273.964 77.866V50.734C273.964 50.426 274.076 50.16 274.3 49.936C274.524 49.712 274.79 49.6 275.098 49.6H283.33C283.638 49.6 283.904 49.712 284.128 49.936C284.352 50.16 284.464 50.426 284.464 50.734V59.554H291.268V50.734C291.268 50.426 291.38 50.16 291.604 49.936C291.828 49.712 292.094 49.6 292.402 49.6ZM316.426 49.6H325.54C326.548 49.6 327.178 50.062 327.43 50.986L336.796 77.782C336.824 77.866 336.838 78.006 336.838 78.202C336.838 78.37 336.74 78.552 336.544 78.748C336.376 78.916 336.166 79 335.914 79H328.144C327.304 79 326.758 78.65 326.506 77.95L325.498 75.178H316.468L315.46 77.95C315.208 78.65 314.662 79 313.822 79H306.052C305.8 79 305.576 78.916 305.38 78.748C305.212 78.552 305.128 78.37 305.128 78.202C305.128 78.006 305.142 77.866 305.17 77.782L314.536 50.986C314.788 50.062 315.418 49.6 316.426 49.6ZM318.61 66.988H323.356L320.962 59.176L318.61 66.988ZM357.929 49.6H365.531C365.839 49.6 366.105 49.712 366.329 49.936C366.553 50.16 366.665 50.426 366.665 50.734V77.866C366.665 78.174 366.553 78.44 366.329 78.664C366.105 78.888 365.839 79 365.531 79H358.895C358.167 79 357.593 78.678 357.173 78.034L350.075 67.324V77.866C350.075 78.174 349.963 78.44 349.739 78.664C349.515 78.888 349.249 79 348.941 79H341.339C341.031 79 340.765 78.888 340.541 78.664C340.317 78.44 340.205 78.174 340.205 77.866V50.734C340.205 50.426 340.317 50.16 340.541 49.936C340.765 49.712 341.031 49.6 341.339 49.6H347.975C348.759 49.6 349.333 49.922 349.697 50.566L356.795 62.2V50.734C356.795 50.426 356.907 50.16 357.131 49.936C357.355 49.712 357.621 49.6 357.929 49.6ZM389.839 49.6H397.441C397.749 49.6 398.015 49.712 398.239 49.936C398.463 50.16 398.575 50.426 398.575 50.734V77.866C398.575 78.174 398.463 78.44 398.239 78.664C398.015 78.888 397.749 79 397.441 79H390.805C390.077 79 389.503 78.678 389.083 78.034L381.985 67.324V77.866C381.985 78.174 381.873 78.44 381.649 78.664C381.425 78.888 381.159 79 380.851 79H373.249C372.941 79 372.675 78.888 372.451 78.664C372.227 78.44 372.115 78.174 372.115 77.866V50.734C372.115 50.426 372.227 50.16 372.451 49.936C372.675 49.712 372.941 49.6 373.249 49.6H379.885C380.669 49.6 381.243 49.922 381.607 50.566L388.705 62.2V50.734C388.705 50.426 388.817 50.16 389.041 49.936C389.265 49.712 389.531 49.6 389.839 49.6ZM414.105 70.81H427.041C427.349 70.81 427.615 70.922 427.839 71.146C428.063 71.37 428.175 71.636 428.175 71.944V77.866C428.175 78.174 428.063 78.44 427.839 78.664C427.615 78.888 427.349 79 427.041 79H405.159C404.851 79 404.585 78.888 404.361 78.664C404.137 78.44 404.025 78.174 404.025 77.866V50.734C404.025 50.426 404.137 50.16 404.361 49.936C404.585 49.712 404.851 49.6 405.159 49.6H426.705C427.013 49.6 427.279 49.712 427.503 49.936C427.727 50.16 427.839 50.426 427.839 50.734V56.656C427.839 56.964 427.727 57.23 427.503 57.454C427.279 57.678 427.013 57.79 426.705 57.79H414.105V60.436H425.781C426.089 60.436 426.355 60.548 426.579 60.772C426.803 60.996 426.915 61.262 426.915 61.57V67.03C426.915 67.338 426.803 67.604 426.579 67.828C426.355 68.052 426.089 68.164 425.781 68.164H414.105V70.81ZM443.896 70.39H455.53C455.838 70.39 456.104 70.502 456.328 70.726C456.552 70.95 456.664 71.216 456.664 71.524V77.866C456.664 78.174 456.552 78.44 456.328 78.664C456.104 78.888 455.838 79 455.53 79H434.362C434.054 79 433.788 78.888 433.564 78.664C433.34 78.44 433.228 78.174 433.228 77.866V50.734C433.228 50.426 433.34 50.16 433.564 49.936C433.788 49.712 434.054 49.6 434.362 49.6H442.762C443.07 49.6 443.336 49.712 443.56 49.936C443.784 50.16 443.896 50.426 443.896 50.734V70.39Z" fill="black"/>
</svg>
